<svg width="14" height="11" fill="none" xmlns="http://www.w3.org/2000/svg"><path d="M13.5 0H.5a.5.5 0 0 0-.5.5v10a.5.5 0 0 0 .5.5h13a.5.5 0 0 0 .5-.5V.5a.5.5 0 0 0-.5-.5Zm-.625 3.25H9.562V1.125h3.313V3.25Zm0 3.5H9.562v-2.5h3.313v2.5Zm-7.438-2.5h3.125v2.5H5.438v-2.5Zm3.125-1H5.438V1.125h3.125V3.25Zm-7.437 1h3.313v2.5H1.124v-2.5Zm0-3.125h3.313V3.25H1.124V1.125Zm0 6.625h3.313v2.125H1.124V7.75Zm4.313 0h3.125v2.125H5.437V7.75Zm7.437 2.125H9.562V7.75h3.313v2.125Z" fill="#000" fill-opacity=".85"/></svg>