<svg width="208" height="60" fill="none" xmlns="http://www.w3.org/2000/svg"><path fill="#fff" d="M0 0h208v60H0z"/><path d="M19.192 38v-2.328h-2.64V38h2.64Zm4.11-2.304V22.064h-2.64v15.96h11.615v-2.328h-8.976Zm16.239-9.984c-3.936 0-7.128 2.832-7.128 6.336 0 3.48 3.192 6.312 7.128 6.312 3.96 0 7.152-2.832 7.152-6.312 0-3.504-3.192-6.336-7.152-6.336Zm0 10.32c-2.472 0-4.488-1.8-4.488-3.984 0-2.208 2.016-4.008 4.488-4.008 2.496 0 4.488 1.8 4.488 4.008 0 2.184-1.992 3.984-4.488 3.984Zm19.395-9.984v.168c0 .384.096.744.24 1.08l.6 1.344-.336.144-.456-1.056c-.288-.6-.768-1.104-1.392-1.368a7.913 7.913 0 0 0-3.144-.648c-3.936 0-7.128 2.832-7.128 6.336 0 3.48 2.52 6.312 5.64 6.312 3.12 0 5.64-2.544 5.64-5.664h-2.64c0 1.848-1.344 3.336-3 3.336s-3-1.8-3-3.984c0-2.208 2.016-4.008 4.488-4.008 2.496 0 4.488 1.8 4.488 4.008v3.984c0 2.208-1.992 3.984-4.488 3.984h-4.152v2.328h4.152c3.96 0 7.152-2.832 7.152-6.312v-9.984h-2.664Zm10.886-.336c-3.936 0-7.128 2.832-7.128 6.336 0 3.48 3.192 6.312 7.128 6.312 3.96 0 7.152-2.832 7.152-6.312 0-3.504-3.192-6.336-7.152-6.336Zm0 10.32c-2.472 0-4.488-1.8-4.488-3.984 0-2.208 2.016-4.008 4.488-4.008 2.496 0 4.488 1.8 4.488 4.008 0 2.184-1.992 3.984-4.488 3.984Z" fill="#000"/></svg>